<?xml version="1.0" encoding="UTF-8"?>
<svg id="Capa_1" xmlns="http://www.w3.org/2000/svg" version="1.1" viewBox="0 0 500 500">
  <!-- Generator: Adobe Illustrator 30.0.0, SVG Export Plug-In . SVG Version: 2.1.1 Build 123)  -->
  <defs>
    <style>
      .st0 {
        fill: #fff;
      }

      .st1 {
        stroke: #6b2422;
        stroke-miterlimit: 10;
        stroke-width: 5px;
      }

      .st1, .st2 {
        fill: #6b2422;
      }
    </style>
  </defs>
  <path class="st2" d="M24.51,23c-3.45-3.79,0,454.02,0,454.02h452.51V23H24.51ZM457.28,457.28H44.12s-3.15-418.01,0-414.54h413.16v414.54Z"/>
  <g>
    <path class="st0" d="M98.25,94.93"/>
    <path class="st1" d="M439.82,436.04c1.11,0,1.66-1.19,1.66-3.58s-.55-3.58-1.66-3.58c-13.65,0-23.88-.98-30.71-2.97-6.83-1.98-11.44-5.97-13.83-11.91-2.41-5.95-3.6-14.68-3.6-26.2V112.11c0-11.51,1.19-20.14,3.6-25.9,2.39-5.75,7-9.71,13.83-11.9,6.83-2.19,17.07-3.29,30.71-3.29,1.11,0,1.66-1.19,1.66-3.56s-.55-3.58-1.66-3.58h-132.26c-1.11,0-1.66,1.19-1.66,3.58s.55,3.56,1.66,3.56c14.4,0,24.99,1.2,31.82,3.58,6.82,2.39,11.35,6.56,13.57,12.51,2.21,5.95,3.32,14.69,3.32,26.2v116.22c0,5.14-1.64,6.43-9.45,6.43h-49.49c8.15-4.46,14.76-10.23,19.65-17.47,5.45-8.09,8.18-17.12,8.18-27.1,0-9.22-2.57-17.4-7.71-24.55-5.14-7.15-12.38-12.8-21.7-16.94-7.68-3.41-16.46-5.33-26.2-5.93,9.27-3.21,17.17-7.63,23.68-13.26,8.7-7.53,13.05-16.65,13.05-27.38,0-6.96-1.64-13.37-4.65-19.4-3.54-7.09-8.15-11.72-18.45-16.19,0,0-6.46-3.85-21.95-3.85H60.18c-.74,0-1.11,1.19-1.11,3.58s.36,3.56,1.11,3.56c13.64,0,23.88,1.1,30.72,3.29,6.82,2.19,11.42,6.15,13.83,11.9,2.39,5.76,3.6,14.39,3.6,25.9v275.7c0,11.52-1.2,20.25-3.6,26.2-2.41,5.95-7.11,9.93-14.11,11.91-7.02,1.98-17.35,2.97-30.99,2.97-.75,0-1.11,1.2-1.11,3.58s.36,3.58,1.11,3.58h132.82c.73,0,1.11-1.19,1.11-3.58s-.37-3.58-1.11-3.58c-14.03,0-24.55-.98-31.54-2.97-7.01-1.98-11.63-5.97-13.84-11.91-2.21-5.95-3.32-14.68-3.32-26.2v-132.65c0-4.7,1.89-6.64,7.27-6.64,8.26,0,20.85.12,22.94.12,6.57,0,8.48,4.74,9.35,6.52l5.65,11.61,65.36,160.2c.35.79,1.27,1,2.93,1s2.58-.4,2.76-1.19l55.85-157.65c3.15-8.87,5.39-12.66,11.41-18.34,1.74-1.65,3.35-2.32,6.13-2.32h22.87v139.33c0,11.52-1.11,20.25-3.32,26.2-2.21,5.95-6.75,9.93-13.57,11.91-6.83,1.98-17.43,2.97-31.82,2.97-1.11,0-1.66,1.2-1.66,3.58s.88,2.79,1.66,3.58c.17.17,132.26,0,132.26,0ZM303.12,198.46c0,12.8-3.62,22.82-10.85,30.06-3.24,3.25-7.47,5.65-12.41,7.44h-45.68c-2.37-1.18-4.31-2.58-5.29-4.48-1.47-2.82-2.2-6.49-2.2-11.01v-69.64c2.57-.2,5.16-.56,7.71-.64,5.55-.19,10.96-.19,16.2,0,16.57,0,29.46,4.51,38.69,13.55,9.23,9.03,13.84,20.61,13.84,34.72ZM228.57,76.65c1.26-2.73,3.35-4.47,6.29-5.22,2.93-.75,6.81-1.13,11.64-1.13,9.64,0,17.3,1.55,22.96,4.66,5.66,3.11,9.8,7.34,12.43,12.7,2.62,5.36,3.93,11.34,3.93,17.92,0,10.92-3.46,20.09-10.38,27.52-6.92,7.43-18.46,11.15-34.6,11.15-.63,0-3.15-.04-7.55-.14-1.95-.04-4.21-.12-6.61-.21v-53.56c0-6.39.63-10.96,1.89-13.69ZM143.74,217.26v-122.07s-2.14-23.77,15.84-23.77h32.74c15.45,0,14.22,20.99,14.22,20.99v127.62c0,8.79-4.74,15.93-20.11,15.93h-23.06c-15.68,0-19.64-8.53-19.64-18.71ZM310.94,251.21c1.45,3.6,1.51,8.86-1.11,16.15l-47.14,133.74-54.85-135.51c-2.97-7.3-3.99-12.47-1.15-15.31,1.26-1.26,2.26-1.81,5.56-1.81h92.67c2.75,0,5.31.94,6.03,2.74Z"/>
  </g>
</svg>