<?xml version="1.0" encoding="UTF-8"?>
<svg id="Capa_1" xmlns="http://www.w3.org/2000/svg" version="1.1" viewBox="0 0 160 160">
  <!-- Generator: Adobe Illustrator 30.0.0, SVG Export Plug-In . SVG Version: 2.1.1 Build 123)  -->
  <defs>
    <style>
      .st0 {
        fill: #ffd363;
        stroke: #ffd363;
        stroke-miterlimit: 10;
        stroke-width: .5px;
      }

      .st1 {
        fill: #6b2422;
      }

      .st2 {
        fill: #111e1e;
      } 

      .st3 {
        fill: #dfdede;
      }
    </style>
  </defs> 
  <g>
    <path class="st3" d="M90.49,73.09c-.09-4.07-1.08-9-4.72-12.45,0,0,2.12,5.1.47,10.33,1.4.73,2.82,1.44,4.25,2.12Z"/>
    <path class="st3" d="M53.37,78.47s-7.01-6.35-6.56-13c0,0-4.38,8.91,2.6,14.23,0,0-3.02.88-4.53,1.29q-.58.16-1.15.31c-1.12.3-2.23.61-3.35.91-.25.07-.49.13-.73.2,0,.03,0,.06,0,.09-5.02-12.91,2.21-24.35,2.21-24.35.2-9.27,4.46-15.56,4.46-15.56-5.01,3.79-6.49,11.09-6.49,11.09-1.08-15.49,13.17-22.85,13.17-22.85,3.34-1.93,4.35-3.46,4.35-3.46-10.89,2.23-15.02,10.18-15.02,10.18,1.22-13.02,14.61-18.19,17.65-18.53s5.55-1.76,5.55-1.76c-3.79-1.83-8.9-.81-8.9-.81,10.15-9.74,20.82-3.41,21.87-2.62,1.22.92,3.97,3.97,3.97,3.97,0,0,.06.11.09.18-.09-.18-.18-1.22-.18-1.22.81,1.26,4.37,3.47,4.37,3.47l-2.98-.14,1.4.95-3.02-.14c-4.15-5.37-11.77-3.11-11.77-3.11.68.09,1.31.45,1.31.45,0,0-5.54-.89-8.07,4.96-2.3,5.32,1.71,9.2,1.71,9.2l.09.77.99-.05,1.4.81c0-.45,1.4-1.71,1.4-1.71-2.66-.9-2.93-3.74-2.93-3.74.32.59,1.62.59,1.62.59-4.55-6.81,2.93-7.12,2.93-7.12l-.05-.63c3.11.05,6.49,3.43,6.49,3.43.45-.41,1.76-.36,1.76-.36v-.45c-.72-.23-.86-1.13-.86-1.13,2.43.86,6.18.9,6.18.9-6.31,1.13-8.97,4.96-8.97,4.96.59-.18,1.85.05,1.85.05-2.03.68-3.83,2.93-3.83,2.93.5-.23,1.49-.18,1.49-.18-1.17.45-4.19,3.52-4.19,3.52.14-.68.99-1.76.99-1.76-23.31,19.43,1.71,29.78,1.71,29.78-15.83-12.47-2.48-23.63-2.48-23.63-4.78,8.88,2.07,15.33,2.07,15.33-.32-.72,0-1.71,0-1.71,1.67,4.42,4.91,6.2,4.91,6.2,3.78,2.84,5.28,7.1,5.87,10.48-1.59-.87-3.16-1.76-4.72-2.68q-.37-.22-.73-.44c-1.57,1.11-3.19,2.16-4.85,3.14,0,0-2.86-5.55-12.19-8.46-9.33-2.91-4.41-12.54-4.41-12.54,0,0-13.65,15.83,4.97,26.58,0,0-3.95,1.58-8.5,3.2Z"/>
    <path class="st3" d="M107.95,79.97s-5.4-1.79-8.05-2.81c-1.78-5.2-5.73-8.52-5.73-8.52.03.54-.28,1.7-.28,1.7.03-9.54-6.59-15.69-6.59-15.69l.34-.57c-3.52-2.94-4.9-9.23-4.9-9.23-1.42,3.18.44,7.91.44,7.91-7.73-7.78-1.39-17.96-1.39-17.96-9.5,6.49-5.51,14.24-5.51,14.24-6.01-8.97,4.84-17.52,4.84-17.52-.98-.3-3.28.81-3.28.81,2.3-3.65,7.78-4.23,7.78-4.23-3.15,2.06-4.23,5.55-4.23,5.55.3-.71,2.84-1.56,2.84-1.56-1.39.91-1.08,3.65-1.08,3.65.64-2.2,3.96-3.5,3.96-3.5-1.35,4.11.51,6.59.51,6.59-.47-3.35,1.18-4.19,1.18-4.19.37,2.1,2.67,3.08,2.67,3.08l.61-.34c4.23.57,7.14-2.2,7.14-2.2-1.42,1.29-1.32,3.99-1.32,3.99.95-1.76,4.5-3.58,4.5-3.58-2.54,2.6-2.13,4.19-2.13,4.19,4.9-2,9.2-.78,9.2-.78-10.96.37-8.73,3.48-8.73,3.48,1.42-.88,3.25-.95,3.25-.95-1.49.37-3.04,1.56-3.04,1.56,3.52-2.16,8.39-1.89,8.39-1.89-5.28.64-8.05,3.11-8.05,3.11.03.71,3.48,2.64,5.95,1.56,2.5-1.09,5.55-1.76,5.55-1.76,3.52,0,3.65-1.45,3.96-1.56.3-.1,1.12-5.07-2.23-5.88s-3.99-2.87-3.99-2.87c-.07-.64.51-.95.51-.95,1.38,0,.47,2.48,3.04,1.49,3.07-1.17,4.91.59,4.91.59,2.03.63,2.39-.14,2.39-.14-.54-2.48-13.12-7.03-13.12-7.03,0,0-.72.27-1.62-.18-.9-.45-1.22-1.8-1.22-1.8,1.49.99.95.18.95.18.05-1.8-3.16-2.71-3.79-3.07-.63-.36-.72.23-.72.23-.63-1.26-2.89-1.35-2.89-1.35-.59-.99-2.93-1.4-2.93-1.4,0,0-2.3-.63-4.24-1.31s-.54.68-.54.68c-1.44-.5-2.62-.05-2.62-.05l-1.67-1.49c-4.24-12.04-16.35-9.47-16.35-9.47,12.56-6.81,19.79,4.64,19.79,4.64-.14-1.44-2.3-4.01-2.3-4.01,7.71,3.56,7.35,10.19,7.35,10.19,2.25.27,4.19,1.76,4.19,1.76l2.3.95,2.98.9c3.02,1.31,2.57,3.83,2.57,3.83,7.35,1.13,14.11,6.81,14.43,7.03.32.23.18,1.71.18,1.71-.05.77-2.07,2.89-2.07,2.89,1.13,6.85-2.66,9.47-2.66,9.47-1.62,4.69-3.43,4.1-3.43,4.1.5-1.17.05-2.93.05-2.93-5.19,1.53-4.91,7.26-4.91,7.26,0,0,.18,1.71,1.44.68.31-.26,1.31-1.31,1.31-1.31.9,2.84-.54,4.55-.54,4.55,0,0,2.12,1.44,1.26,2.43-.49.56-.27,1.08-.27,1.08,1.26,2.66-.45,5.1-.45,5.1l-.32-.81c-.05.77-.9,1.49-.9,1.49,4.51,4.16,6.13,8.68,6.43,12.66-1.8-.4-3.59-.85-5.36-1.34,0,0-.69-3.21-5.35-7.27,0,0,2.37,3.64,1.65,6.18Z"/>
    <path class="st3" d="M93.1,74.32c.44.2.89.39,1.34.58-.33-.53-.68-1.07-1.06-1.62,0,0-.09.41-.28,1.04Z"/>
  </g>
  <path class="st3" d="M94.37,26.41c-2.12,1.26-4.46,1.38-4.46,1.38,0,0,1.31.7,3.34.74,0,0,.95,2.39,4.46,2.21,0,0-2.62-.32-3.52-2.16,0,0,.09-.68.54-.27.45.41,1.67,1.98,4.42,1.44,2.75-.54,2.39,2.12,2.39,2.12,0,0,.68-2.3,5.59-.59,0,0-1.94-1.94-4.1-1.49,0,0-.27.68-.9-.27s-1.22-.9-1.22-.9c0,0-.72-.32.41-.86,1.13-.54,1.17,0,1.98-1.13,0,0-2.66-.27-3.07-1.53,0,0,.05-.5-2.21-1.4,0,0,1.4,1.26,1.35,2.03,0,0-2.89-.59-5.01.68ZM97.38,29.36c-.49-.03-1.49-.63-1.57-1.44,0,0,.9-.69,1.57-.46,0,0-.51.53.12,1.08.39.34,1.01-.17,1.01-.17,0,0-.27,1.04-1.13.98ZM97.72,27.64c0-.05.46-.08.46-.08v.37l-.46.05v-.34Z"/>
  <path class="st2" d="M119.41,39.27s-1.32.47-1.66,2.06-.78,1.39-.81,1.93.91,1.72.98,2.23.51.61,1.08-1.29.64-3.45.41-4.94Z"/>
  <path class="st2" d="M102.25,39.67s-2.27,1.43-4.91,2.24c-1.9.58-3.05,1.11-3.97,1.82,0,0,3.99-3.62,8.88-4.07Z"/>
  <path class="st2" d="M101.5,42.4s-1.01.92-1.62,1.23-4.13,2.16-4.9,3.28,2.43-3.5,6.53-4.51Z"/>
  <path class="st2" d="M110.29,45.59s-.05,3.38-2.43,4.89c0,0,.27-2.77-.32-3.79,0,0,1.74-1.22,2.75-1.1Z"/>
  <path class="st2" d="M111.62,45.39s-.02,1.08-.2,1.4.74-.09.92-.54.23.29.23.29c0,0,.47.09.65-.16s.11.25.11.25c0,0,.59.07.65-.16s.05.25,0,.43.54.18.68,0,.23.2.18.34.61.25.95-.92c0,0-.25-.27-.59-.2s-.41-.3-.41-.3c0,0-.5.06-.61.1s-.25-.23-.25-.23l-.61.12-.09-.42-.43.2h-.25l.05-.42s-.88-.2-.92,0-.07.23-.07.23Z"/>
  <path class="st2" d="M115.02,47.87s1.33-.86,1.56-1.22.27,3.16-1.92,4.73c0,0,.4-1.73.36-3.52Z"/>
  <path class="st2" d="M100.83,57.63s.14.68.81.85-.2.15-.2.15l-1.12-.41.07-.59h.44Z"/>
  <path class="st2" d="M102.84,58.62s-.36.52-.08.81.79.59,1.01.61,1.12-.03,1.27-.24.86-1.13.93-1.57.44-2.25-.49-3.53c0,0-.88,2.88-2.64,3.92Z"/>
  <path class="st2" d="M111.56,56.97s-.85,1.08-1.44,1.5c0,0-.17.12-.2.32s-.17,0-.17,0h-.68l-.32-.27-.78.03h-1.01l-.34-.63s-.41.43-.41.48-.12.81-.12.81v.29h.61l.15-.24h.25l.05.24h.56s.08-.19.15-.19.27.19.27.19l.68.08v-.24l.2.39h.42l.17-.29.29-.05s-.07.49.52.76,1.44-2.06,1.13-3.2Z"/>
  <path class="st2" d="M109.06,60.47s-2.84-.5-5.28.54c0,0-3.27,1.4-4.49-1.06,0,0,.07-.34.27,0,0,0,.57.82,1.8.9,2.1.14,4.25-1.59,7.69-.38Z"/>
  <path class="st2" d="M100.96,45.97s.34.7.81.86c0,0-5.39,3.65-4.17,11.54,0,0,.28,3.27,3.88,4.31,2.34.68,5.67-3.63,9.97,0,0,0,.35.45-.17.72s.09,1.08.09,1.08c0,0,.27.32.26,1.15,0,0-.24-.14-.42-.16,0,0,.23,1.19-.07,1.6,0,0-.05-.38-.47-.54,0,0-1.1,3.2-3.34,3.9,0,0,.7-.72.77-1.49,0,0-.14.2-.5.14,0,0,.25-1.1,0-1.44,0,0-.87,1.19-1.5,1.51,0,0-.37.07-.59-.05,0,0-.16.72-.79,1.33,0,0-.34-.59-1.36-1.27-1.25-.84-.7-2.43-.7-2.43,0,0-1.39.52-1.32,2.19,0,0-2.14-1.26-1.58-3.47,0,0-.7-.05-.88.36,0,0-.34-.32-.38-.61l-.05-.29s-1.17.68-1.02,1.06c0,0-.67-1.17-.19-1.87,0,0-.32-.25-.63-.09,0,0-.09-.9.59-1.26,0,0-1.85-1.22-2.03-2.95,0,0,.27.38.92.24,0,0-1.8-3.5-.65-6.63,0,0-1.49.32-1.74,1.29,0,0-.54-3.27,1.69-4.4,0,0,.2.52.74.54,0,0,2.05-5.39,3.18-5.77s-.45,2.86-.45,2.86c0,0,1.26-1.71,2.11-1.96Z"/>
  <path class="st2" d="M59.49,35.06s-12.85,10.96-10.51,23.13c0,0-8.34-14.83,10.51-23.13Z"/>
  <path class="st2" d="M58.54,89.53"/>
  <path class="st1" d="M116.87,114.07c.05,4.67-.05,8.75-1.91,13.17-.11.28-.22.56-.33.85-1.3,3.29-3.15,5.85-5.73,8.44-.25.28-.49.56-.75.85-4.98,5.49-12.27,8.76-19.17,11.93-.35.16-.69.32-1.05.49-1.95.89-3.9,1.77-5.87,2.61q-.72.35-1.46.71c-2.66.76-4.81.02-7.24-1.07-.59-.29-1.18-.58-1.77-.88-.64-.32-1.29-.63-1.93-.95-.32-.16-.63-.31-.96-.47-1.32-.64-2.68-1.21-4.03-1.8-4.8-2.14-9.31-4.76-13.34-7.94q-.64-.5-1.28-1.01c-5.68-4.66-9.38-11.1-10.4-17.97-.06-1.25-.05-2.5-.05-3.75,0-.37,0-.74,0-1.12,0-1.22,0-2.44,0-3.66,0-.85,0-1.7,0-2.54,0-2.23,0-4.45.01-6.68,0-2.27,0-4.55,0-6.82,0-4.46.01-8.92.02-13.38.24-.06.48-.13.73-.19,1.11-.3,2.22-.59,3.33-.89q.57-.15,1.14-.3c11.79-3.15,23.54-7.28,33.32-14.1q.36.21.72.43c11.62,6.77,24.64,12.12,38.16,15.08l-.17,30.96ZM78.16,72.63c-.31.18-.62.36-.94.54-9.36,5.28-19.03,8.87-29.53,11.91-1.25.36-2.49.73-3.73,1.1.03,4.57.06,9.13.1,13.7.02,2.12.04,4.24.05,6.36.01,2.05.03,4.1.05,6.15,0,.78.01,1.56.01,2.34.03,7.99,1.53,14.07,7.58,20.26.24.25.48.51.73.77,3.8,3.69,9.04,6.27,13.99,8.53.26.12.52.24.79.37,1.47.68,2.95,1.34,4.44,1.98,1.06.46,2.03.93,3.05,1.49,1.34.67,2.31,1.05,3.84,1.2,2.17-.6,3.99-1.53,5.92-2.57,1.47-.77,2.98-1.44,4.49-2.13,9.97-4.56,18.76-10.11,22.49-20.08,1.11-4.12.98-8.27.95-12.47,0-.75,0-1.5,0-2.25,0-1.96-.01-3.91-.02-5.87,0-2-.01-4-.02-6.01,0-3.92-.02-7.83-.04-11.75-.32-.09-.65-.19-.98-.29-1.5-.44-3.01-.88-4.51-1.33-.51-.15-1.02-.3-1.55-.45-8.49-2.51-16.4-5.95-24.13-9.94-.58-.3-1.17-.6-1.76-.9q-.63-.32-1.28-.65Z"/>
  <path class="st0" d="M103.03,133.96c.14,0,.22-.15.22-.47s-.07-.47-.22-.47c-1.78,0-3.11-.13-4-.39s-1.49-.78-1.8-1.55c-.31-.78-.47-1.91-.47-3.41v-35.91c0-1.5.15-2.62.47-3.37.31-.75.91-1.27,1.8-1.55s2.22-.43,4-.43c.14,0,.22-.15.22-.46s-.07-.47-.22-.47h-17.23c-.14,0-.22.15-.22.47s.07.46.22.46c1.88,0,3.26.16,4.14.47.89.31,1.48.85,1.77,1.63.29.78.43,1.91.43,3.41v15.14c0,.67-.21.84-1.23.84h-6.45c1.06-.58,1.92-1.33,2.56-2.28.71-1.05,1.07-2.23,1.07-3.53,0-1.2-.33-2.27-1-3.2-.67-.93-1.61-1.67-2.83-2.21-1-.44-2.14-.69-3.41-.77,1.21-.42,2.24-.99,3.09-1.73,1.13-.98,1.7-2.17,1.7-3.57,0-.91-.21-1.74-.61-2.53-.46-.92-1.06-1.53-2.4-2.11,0,0-.84-.5-2.86-.5h-26.19c-.1,0-.14.15-.14.47s.05.46.14.46c1.78,0,3.11.14,4,.43.89.28,1.49.8,1.8,1.55.31.75.47,1.87.47,3.37v35.91c0,1.5-.16,2.64-.47,3.41-.31.78-.93,1.29-1.84,1.55-.91.26-2.26.39-4.04.39-.1,0-.14.16-.14.47s.05.47.14.47h17.3c.1,0,.14-.15.14-.47s-.05-.47-.14-.47c-1.83,0-3.2-.13-4.11-.39-.91-.26-1.51-.78-1.8-1.55-.29-.78-.43-1.91-.43-3.41v-17.28c0-.61.25-.87.95-.87,1.08,0,2.72.02,2.99.02.86,0,1.1.62,1.22.85l.74,1.51,8.51,20.87c.05.1.17.13.38.13s.34-.05.36-.15l7.27-20.54c.41-1.16.7-1.65,1.49-2.39.23-.21.44-.3.8-.3h2.98v18.15c0,1.5-.14,2.64-.43,3.41-.29.78-.88,1.29-1.77,1.55-.89.26-2.27.39-4.14.39-.14,0-.22.16-.22.47s.11.36.22.47c.02.02,17.23,0,17.23,0ZM85.23,103.02c0,1.67-.47,2.97-1.41,3.92-.42.42-.97.74-1.62.97h-5.95c-.31-.15-.56-.34-.69-.58-.19-.37-.29-.85-.29-1.43v-9.07c.33-.03.67-.07,1-.08.72-.02,1.43-.02,2.11,0,2.16,0,3.84.59,5.04,1.76,1.2,1.18,1.8,2.68,1.8,4.52ZM75.52,87.15c.16-.36.44-.58.82-.68.38-.1.89-.15,1.52-.15,1.26,0,2.25.2,2.99.61.74.4,1.28.96,1.62,1.65.34.7.51,1.48.51,2.33,0,1.42-.45,2.62-1.35,3.59-.9.97-2.4,1.45-4.51,1.45-.08,0-.41,0-.98-.02-.25,0-.55-.02-.86-.03v-6.98c0-.83.08-1.43.25-1.78ZM64.47,105.47v-15.9s-.28-3.1,2.06-3.1h4.26c2.01,0,1.85,2.73,1.85,2.73v16.62c0,1.15-.62,2.07-2.62,2.07h-3c-2.04,0-2.56-1.11-2.56-2.44ZM86.25,109.89c.19.47.2,1.15-.15,2.1l-6.14,17.42-7.14-17.65c-.39-.95-.52-1.62-.15-1.99.16-.16.29-.24.72-.24h12.07c.36,0,.69.12.79.36Z"/>
  <path class="st3" d="M65.38,73.87s-4.77-2.46-5.02-6.92c0,0,4.29,5.14,8.74,5.21,0,0-2.01.98-3.73,1.72"/>
</svg>