<?xml version="1.0" encoding="UTF-8" standalone="no"?>
<!DOCTYPE svg PUBLIC "-//W3C//DTD SVG 1.1//EN" "http://www.w3.org/Graphics/SVG/1.1/DTD/svg11.dtd">
<svg width="100%" height="100%" viewBox="0 0 146 163" version="1.1" xmlns="http://www.w3.org/2000/svg" xmlns:xlink="http://www.w3.org/1999/xlink" xml:space="preserve" xmlns:serif="http://www.serif.com/" style="fill-rule:evenodd;clip-rule:evenodd;stroke-linejoin:round;stroke-miterlimit:2;">
    <g transform="matrix(-0.675414,0,0,0.675414,172.172033,-26.050572)">
        <g transform="matrix(-1,0,0,1,376.003326,43.368298)">
            <path d="M184.232,7.381C179.792,8.235 176.242,10.008 173.626,12.687C171.803,14.541 171.106,14.84 167.824,15.045C166.538,15.139 165.283,15.322 165.015,15.46C164.736,15.606 164.082,16.154 163.514,16.686C162.538,17.628 162.473,17.664 160.812,17.868C157.23,18.307 154.964,18.861 150.505,20.409C146.82,21.693 144.338,22.919 143.761,23.707C143.12,24.634 143.12,26.108 143.784,27.035C144.221,27.677 144.244,27.772 143.995,28.757C143.805,29.641 143.805,29.99 144.083,31.078C144.258,31.794 144.623,32.735 144.9,33.18C145.309,33.888 145.36,34.187 145.265,35.202C145.149,36.64 145.426,37.311 146.659,38.508C147.987,39.808 149.425,40.384 150.162,39.924C150.301,39.829 150.411,39.414 150.388,38.829C150.345,37.771 150.761,36.939 151.483,36.757C152.008,36.64 156.146,37.844 157.455,38.508C158.034,38.807 158.248,39.063 158.409,39.705C158.527,40.15 158.817,40.683 159.031,40.909C159.471,41.347 159.514,41.749 159.17,42.047C158.634,42.485 156.394,43.062 154.154,43.369C151.709,43.69 151.228,43.85 150.439,44.566C149.425,45.492 149.184,46.638 149.651,48.375C149.863,49.207 149.841,49.339 149.323,50.273C149.024,50.842 148.725,51.74 148.659,52.302C148.382,54.761 151.228,57.907 153.767,57.907C154.614,57.907 155.549,57.381 157.67,55.739C159.953,53.98 161.015,53.294 163.257,52.177C164.501,51.58 165.594,51.003 165.755,50.871C165.894,50.754 166.141,50.703 166.323,50.754C166.741,50.936 166.002,52.659 164.833,54.199C159.59,61.125 159.729,60.914 158.27,64.49C155.986,70.058 155.512,76.138 156.972,80.75C157.648,82.859 158.935,85.603 159.192,85.442C159.278,85.391 159.417,84.29 159.471,82.99C159.632,80.086 160.694,75.517 161.23,75.517C161.315,75.517 161.434,77.262 161.477,79.363C161.519,81.487 161.659,83.648 161.777,84.173C162.098,85.552 163.76,89.624 164.479,90.814C165.433,92.413 167.739,95.303 169.358,96.96L170.859,98.5L170.527,99.667C169.637,102.827 166.655,110.41 164.415,115.256C163.921,116.336 163.139,118.175 162.731,119.256C161.477,122.518 159.428,125.721 157.927,126.707C156.586,127.59 155.41,127.801 153.468,127.546C149.928,127.086 150.228,127.065 148.82,127.911C147.104,128.926 145.149,131.065 144.601,132.509C143.878,134.472 143.878,134.472 146.959,134.523C148.564,134.545 149.768,134.494 150.002,134.377C150.228,134.246 150.579,133.779 150.826,133.312C151.323,132.305 151.964,131.568 152.352,131.568C152.68,131.568 152.673,131.75 152.308,132.626C151.804,133.83 151.913,134.333 152.673,134.472C153.009,134.523 155.971,134.567 159.214,134.523C164.983,134.472 165.133,134.45 166.099,133.99C167.182,133.472 167.9,132.59 173.187,125.539C177.529,119.715 179.052,117.818 181.851,114.658C186.259,109.716 186.355,109.534 185.155,107.688C184.179,106.14 182.698,104.703 179.374,102.068C175.503,98.981 174.592,97.799 173.562,94.639C173.187,93.478 172.629,90.895 172.629,90.289C172.629,89.668 173.144,90.194 173.444,91.098C173.562,91.493 174.249,92.997 174.924,94.434C176.811,98.303 178.527,100.156 182.377,102.506C184.039,103.506 187.739,105.382 188.479,105.629C188.982,105.79 189.519,106.74 190.258,108.834C191.707,112.928 193.722,117.73 195.18,120.576C196.446,123.088 196.746,123.824 196.811,124.758C196.885,125.984 196.564,126.787 195.802,127.182C195.589,127.313 194.44,127.568 193.218,127.757C190.344,128.261 188.918,128.926 187.577,130.363C186.494,131.517 185.111,134.012 185.337,134.377C185.412,134.494 186.419,134.567 187.718,134.567C190.302,134.567 190.28,134.567 191.342,132.59C191.867,131.634 192.017,131.473 192.607,131.408C193.379,131.334 193.465,131.706 192.821,132.59C192.607,132.91 192.404,133.414 192.382,133.713C192.339,134.173 192.446,134.267 193.143,134.407C193.583,134.516 196.21,134.545 198.944,134.516C204.628,134.428 205.518,134.246 206.88,133.027C207.738,132.254 208.714,130.509 209.175,128.962C209.518,127.823 209.862,121.445 209.862,115.854C209.862,113.526 209.958,109.716 210.054,107.33C210.194,103.783 210.183,102.761 209.958,101.769C209.593,100.244 208.092,97.12 206.773,95.171C205.829,93.755 205.797,93.638 205.819,92.369C205.819,91.42 205.979,90.632 206.376,89.624C207.76,86.027 207.899,85.26 207.781,82.166C207.695,79.926 207.717,79.319 207.92,79.319C208.618,79.319 209.583,83.063 209.401,85.005C209.282,86.151 208.478,88.727 207.738,90.311C207.276,91.266 207.459,93.135 208.135,94.675C208.532,95.536 209.122,96.295 210.194,97.361C212.403,99.528 212.66,100.134 212.66,103.579L212.66,106.345L213.625,106.345C214.58,106.345 217.464,105.812 219.47,105.265C222.344,104.499 224.606,103.425 227.759,101.404C228.854,100.682 230.536,99.674 231.48,99.185C232.413,98.682 234.075,97.682 235.18,96.945C238.943,94.456 241.507,93.573 245.593,93.391C247.855,93.295 248.413,93.339 249.85,93.711C250.772,93.96 252.112,94.478 252.841,94.872C254.9,95.996 255.158,96.113 255.319,96.04C255.383,95.974 255.093,95.054 254.675,93.989C254.256,92.916 253.722,91.449 253.474,90.734C253.121,89.69 252.755,89.165 251.759,88.15C251.051,87.45 250.557,86.786 250.632,86.713C250.955,86.392 252.337,86.946 253.195,87.749C254.343,88.793 255.48,90.574 257.603,94.537C259.619,98.339 259.983,98.923 261.389,100.842C263.523,103.783 268.295,108.009 271.49,109.79C273.077,110.644 277.624,112.417 279.361,112.811C279.598,112.877 280.466,113.11 281.227,113.352C281.999,113.592 283.522,114.037 284.627,114.358C291.189,116.176 292.016,116.716 294.911,121.146C296.198,123.088 297.656,125.882 297.839,126.766C298.042,127.729 297.817,127.801 294.611,127.823C291.651,127.867 291.629,127.867 290.268,128.546C287.726,129.83 286.149,131.75 286.064,133.647L286.031,134.472L288.134,134.523C289.292,134.567 290.611,134.523 291.093,134.472C292.037,134.333 291.972,134.407 292.809,132.114C293.013,131.59 293.431,130.889 293.774,130.568C294.375,129.947 295.34,129.743 295.34,130.225C295.34,130.363 294.975,131.225 294.514,132.144C294.075,133.05 293.731,133.947 293.774,134.129C293.838,134.428 294.353,134.472 299.243,134.472C303.339,134.472 304.841,134.384 305.441,134.195C307.629,133.436 308.744,131.911 308.744,129.721C308.744,128.466 308.605,127.685 307.382,122.16C306.803,119.554 306.685,118.723 306.063,112.767C305.742,109.673 305.763,109.695 303.543,108.841C299.575,107.344 295.651,105.126 293.41,103.083C290.793,100.704 288.552,96.996 286.428,91.537C285.345,88.749 284.284,86.487 283.168,84.523C282.365,83.129 279.082,77.882 278.675,77.334C278.225,76.736 278.225,76.525 278.718,76.525C279.136,76.525 281.603,79.203 282.943,81.122C284.166,82.881 284.723,83.429 286.31,84.428C288.53,85.83 290.814,86.756 293.978,87.515C296.015,88.005 296.958,88.027 298.793,87.632C302.556,86.83 305.742,84.188 307.007,80.779C308.969,75.576 307.468,70.058 303.081,66.227C299.918,63.482 295.79,61.264 288.927,58.585C286.471,57.615 282.879,55.812 280.927,54.564C279.082,53.36 276.702,51.163 275.597,49.674C273.377,46.638 273.42,43.106 275.715,40.61C277.238,38.968 278.825,38.282 281.227,38.282C284.069,38.282 286.149,39.18 288.691,41.508C291.511,44.076 293.474,45.047 297.335,45.814C300.916,46.528 305.827,45.573 308.047,43.734C308.884,43.033 310.149,41.325 310.149,40.865C310.149,40.405 310.17,40.405 309.291,40.792C308.422,41.142 306.664,41.187 305.72,40.843C305.345,40.727 303.822,39.705 302.343,38.581C297.602,35.041 293.677,32.823 290.236,31.742C288.552,31.217 288.187,31.173 285.023,31.173C281.881,31.173 281.485,31.217 279.802,31.721C274.815,33.224 270.954,36.041 269.41,39.325C267.029,44.405 268.166,49.813 272.552,54.257C274.836,56.564 280.145,59.76 286.172,62.482C292.476,65.351 296.359,67.533 298.9,69.671C299.704,70.358 300.155,70.978 300.799,72.277C301.624,73.941 301.645,74.058 301.645,75.905C301.645,77.641 301.581,77.897 301.077,78.765C299.78,80.983 297.602,81.626 294.632,80.619C291.886,79.699 287.651,77.239 283.929,74.422C279.683,71.197 278.975,70.752 274.633,68.627C269.356,66.044 267.533,65.373 263.609,64.49C259.361,63.548 256.381,63.293 248.788,63.205C241.711,63.132 236.638,62.687 232.982,61.862C230,61.213 223.727,58.046 221.625,56.14C219.985,54.659 219.427,52.805 219.963,50.71C220.371,49.134 220.391,45.609 219.963,43.69C219.33,40.566 218.344,38.391 215.62,33.939C213.861,31.078 213.464,30.217 213.818,29.99C214.204,29.757 215.202,30.859 216.79,33.268C217.647,34.581 218.43,35.603 218.526,35.509C218.601,35.421 218.483,34.501 218.268,33.458C218.022,32.414 217.7,30.94 217.528,30.173C216.767,26.802 215.105,24.568 211.577,22.211C209.336,20.686 208.092,19.547 206.73,17.708C203.149,12.92 198.247,9.497 193.046,8.162C192.317,7.979 191.417,7.753 190.998,7.636C190.205,7.447 185.015,7.235 184.232,7.381ZM195.106,13.759C199.03,14.789 201.936,17.81 202.655,21.627C202.816,22.51 202.387,28.094 202.13,28.517C201.808,29.035 201.454,27.335 201.454,25.254C201.454,21.372 200.81,19.591 198.687,17.664C196.843,15.986 195.889,15.438 194.484,15.322C192.017,15.11 189.743,16.007 187.76,18.007C185.862,19.926 185.98,20.335 188.436,20.569C189.723,20.686 190.977,20.985 193.883,21.868C194.945,22.189 196.95,23.386 197.669,24.115C198.613,25.072 200.274,27.517 200.853,28.736C201.111,29.276 201.507,29.83 201.776,30.013C202.312,30.356 202.387,30.918 201.969,31.261C201.55,31.626 201.132,31.334 200.725,30.422C200.028,28.86 198.526,26.779 197.186,25.532C194.741,23.269 190.967,21.868 187.234,21.868C185.379,21.868 183.975,21.489 183.76,20.956C183.696,20.795 183.739,20.409 183.856,20.109C184.114,19.43 188.242,15.322 189.444,14.562C191.116,13.475 193.026,13.22 195.106,13.759ZM177.787,14.585C178.57,14.767 179.353,15.001 179.546,15.139C179.868,15.387 180.49,16.869 180.329,17.03C180.296,17.081 179.772,16.891 179.191,16.621C177.434,15.803 175.406,15.409 173.765,15.548C172.961,15.606 172.06,15.686 171.739,15.723C170.838,15.788 170.902,15.343 171.868,14.979C173.83,14.242 175.707,14.102 177.787,14.585ZM169.519,15.847C169.701,16.154 169.058,16.409 167.16,16.752C166.195,16.92 165.155,17.168 164.876,17.285C164.523,17.423 164.275,17.402 164.136,17.263C163.835,16.964 164.64,16.343 165.82,15.986C166.837,15.65 169.337,15.562 169.519,15.847ZM170.119,18.467C170.324,18.788 171.599,19.387 173.09,19.868C174.366,20.292 174.827,20.664 174.087,20.664C173.584,20.686 172.125,21.372 170.925,22.153C170.388,22.51 169.305,23.065 168.522,23.364C167.76,23.663 167.085,23.955 167.042,23.991C166.978,24.028 167.138,24.269 167.385,24.532C167.965,25.16 168.222,25.933 168.222,27.101C168.222,28.495 167.76,28.414 166.237,26.736C165.122,25.488 165.015,25.298 165.015,24.474C165.015,23.153 164.618,22.671 163.493,22.671C163.021,22.671 162.613,22.598 162.613,22.51C162.613,22.415 162.999,22.153 163.46,21.955C163.921,21.743 164.854,21.168 165.519,20.686C168.179,18.715 168.897,18.263 169.444,18.263C169.744,18.263 170.066,18.372 170.119,18.467ZM159.514,22.488C159.61,22.62 159.578,22.671 159.417,22.671C158.313,22.693 153.184,23.313 152.125,23.569C151.388,23.729 150.119,24.232 149.287,24.678C148.447,25.116 147.644,25.466 147.505,25.466C147.024,25.466 146.959,25.094 147.345,24.591C148.148,23.495 150.666,22.627 154.066,22.291C155.775,22.109 159.235,22.247 159.514,22.488ZM184.714,29.415C185.24,30.45 185.476,32.699 185.262,34.304C184.993,36.106 184.211,38.763 183.535,40.194C182.859,41.567 181.358,43.391 180.135,44.354C178.473,45.653 173.83,47.734 173.83,47.193C173.83,47.106 174.441,46.368 175.192,45.529C175.932,44.675 176.886,43.529 177.326,42.989C177.766,42.434 178.451,41.632 178.849,41.187C183.278,36.362 183.834,35.239 183.834,31.078C183.834,29.276 183.9,28.874 184.135,28.874C184.296,28.874 184.554,29.116 184.714,29.415ZM146.214,31.378C147.849,32.823 148.338,32.983 151.913,32.983C155.053,32.983 155.125,32.998 156.211,33.567C159.278,35.166 161.551,37.362 162.796,39.902C163.482,41.325 163.621,41.828 163.621,42.807C163.621,43.449 163.514,44.332 163.396,44.748C163.054,46.017 161.691,47.47 160.018,48.375L158.517,49.2L156.211,49.2C154.322,49.178 153.767,49.112 153.111,48.791C152.424,48.448 152.286,48.28 152.242,47.711C152.213,47.332 152.008,46.798 151.782,46.506C151.447,46.091 151.432,45.974 151.665,45.733C151.921,45.492 152.03,45.492 152.512,45.814C153.672,46.572 157.315,46.499 158.871,45.675C159.953,45.091 160.897,43.427 161.315,41.347C161.755,39.18 157.788,36.64 151.549,35.064C149.359,34.516 148.944,34.333 147.549,33.363C146.681,32.735 145.797,31.954 145.586,31.626C144.879,30.45 145.126,30.378 146.214,31.378ZM194.022,34.027C194.162,34.333 194.57,35.304 194.902,36.18C195.664,38.231 195.749,40.566 195.084,42.252C194.388,44.032 192.446,47.054 190.967,48.631C189.582,50.112 188.779,50.754 184.5,53.864C183.256,54.747 181.455,56.14 180.49,56.965C178.591,58.585 174.484,62.709 173.487,64.008C172.146,65.767 170.828,69.153 170.828,70.853C170.828,72.094 170.442,72.481 170.066,71.613C169.283,69.898 170.506,65.271 172.661,61.811C173.444,60.585 175.192,58.344 176.425,57.016C177.905,55.418 182.538,51.536 185.936,48.995C191.385,44.953 193.026,42.894 193.54,39.325C193.7,38.347 193.787,37.362 193.744,37.165C193.561,36.267 193.465,33.48 193.626,33.48C193.7,33.48 193.883,33.727 194.022,34.027ZM149.608,36.866C149.608,37.45 148.921,38.165 148.542,38.026C148.104,37.865 148.104,37.326 148.542,36.844C148.958,36.362 149.608,36.362 149.608,36.866ZM205.057,41.165C205.057,43.084 204.95,43.755 204.456,45.551C204.113,46.711 203.577,48.309 203.255,49.112C202.591,50.681 200.789,53.521 199.91,54.338C199.588,54.615 197.723,55.944 195.749,57.264C188.404,62.205 183.717,66.949 181.23,72.022C179.567,75.378 179.009,78.86 179.492,82.786C179.653,84.049 179.632,84.151 179.31,84.085C179.074,84.049 178.849,83.589 178.57,82.626C178.248,81.509 178.152,80.597 178.152,78.123C178.13,76.204 178.227,74.722 178.366,74.219C178.506,73.78 178.849,72.693 179.106,71.795C179.749,69.693 180.468,68.146 181.711,66.314C184.179,62.584 187.535,59.206 192.039,55.9C198.247,51.331 199.814,49.719 201.615,46.047C202.268,44.697 203.255,42.529 203.77,41.231C204.296,39.946 204.789,38.88 204.875,38.88C204.971,38.88 205.057,39.902 205.057,41.165ZM209.261,54.221C209.433,54.564 209.562,55.345 209.562,56.104C209.562,57.199 209.454,57.586 208.896,58.563C207.556,60.87 204.488,63.914 200.65,66.73C197.948,68.693 196.51,70.058 195.909,71.153C195.128,72.576 194.741,72.671 194.902,71.415C195.17,69.533 196.542,67.774 199.61,65.467C202.076,63.614 205.035,60.767 205.915,59.44C207.159,57.586 208.252,55.235 208.252,54.476C208.252,53.316 208.735,53.177 209.261,54.221ZM218.762,61.95C219.888,63.205 221.186,65.767 221.464,67.292C221.893,69.511 221.603,70.853 220.745,70.678C220.231,70.569 219.844,69.715 219.641,68.139C219.427,66.314 218.966,64.891 218.043,63.044C217.625,62.183 217.261,61.373 217.261,61.213C217.261,60.629 217.839,60.928 218.762,61.95Z" style="fill:white;fill-rule:nonzero;"/>
            <path d="M245.375,97.062C241.633,97.426 233.151,99.945 233.311,100.66C233.504,101.477 236.013,107.644 236.453,108.403C237.193,109.651 238.952,111.453 241.772,113.774C246.062,117.336 246.661,118.197 246.2,120.102C245.857,121.445 244.818,122.927 242.62,125.211C239.51,128.385 237.837,129.006 234.265,128.261C232.431,127.867 232.249,127.889 231.006,128.466C229.065,129.371 226.502,132.254 226.062,134.012L225.922,134.567L228.7,134.567C230.63,134.567 231.585,134.494 231.81,134.311C231.992,134.195 232.571,133.509 233.064,132.808C233.665,131.976 234.104,131.568 234.33,131.611C234.867,131.706 234.834,132.275 234.19,133.29C233.869,133.83 233.655,134.333 233.686,134.407C233.75,134.494 236.25,134.567 239.23,134.567C246.222,134.567 246.501,134.516 248.882,132.254C249.321,131.823 251.166,130.108 252.989,128.4C258.533,123.204 259.038,122.701 259.81,121.496C261.097,119.533 261.053,119.212 259.349,116.694C258.137,114.892 257.793,114.015 257.793,112.534C257.793,111.053 258.137,110.045 259.637,107.344C260.153,106.411 260.635,105.403 260.689,105.082C261.074,103.549 257.911,99.74 255.165,98.441C254.351,98.054 253.182,97.594 252.582,97.433C251.487,97.134 247.059,96.901 245.375,97.062Z" style="fill:white;fill-rule:nonzero;"/>
        </g>
        <rect x="67.32" y="180.989" width="165.043" height="7.593" style="fill:white;"/>
    </g>
    <g transform="matrix(1,0,0,1,-8.074,-1.751)">
        <path d="M36.12,147.496C34.938,147.496 33.795,147.46 32.689,147.386C31.585,147.313 30.555,147.276 29.602,147.276C29.183,147.276 28.554,147.285 27.716,147.304C26.877,147.322 26.039,147.34 25.2,147.358C24.361,147.377 23.676,147.386 23.142,147.386C23.104,147.019 23.104,146.653 23.142,146.286C24.437,146.176 25.372,146.057 25.943,145.929C26.515,145.8 26.867,145.534 27,145.131C27.134,144.728 27.201,144.049 27.201,143.096L27.201,113.559C27.201,112.459 27.125,111.671 26.972,111.195C26.819,110.718 26.467,110.397 25.914,110.232C25.362,110.067 24.437,109.947 23.142,109.874C23.104,109.508 23.104,109.141 23.142,108.774C24.057,108.774 25.152,108.793 26.429,108.829C27.706,108.866 28.801,108.884 29.717,108.884C30.326,108.884 31.041,108.875 31.861,108.857C32.68,108.838 33.481,108.82 34.262,108.802C35.044,108.783 35.681,108.774 36.177,108.774C40.103,108.774 43.048,109.499 45.011,110.947C46.973,112.395 47.955,114.513 47.955,117.3C47.955,119.756 47.26,121.7 45.868,123.13C44.477,124.56 42.752,125.697 40.693,126.54L40.693,126.65C42.295,126.87 43.82,127.42 45.268,128.3C46.716,129.18 47.898,130.335 48.813,131.765C49.727,133.195 50.184,134.9 50.184,136.881C50.184,139.337 49.46,141.427 48.012,143.151C46.563,144.874 44.772,146.066 42.638,146.726C41.799,146.983 40.799,147.175 39.635,147.304C38.474,147.432 37.301,147.496 36.12,147.496ZM34.747,127.915C34.367,127.915 33.91,127.924 33.376,127.943C32.843,127.961 32.289,127.989 31.718,128.025L31.718,145.516C32.519,145.626 33.337,145.708 34.176,145.763C35.014,145.819 35.72,145.846 36.292,145.846C42.238,145.846 45.211,142.986 45.211,137.265C45.211,131.032 41.723,127.915 34.747,127.915ZM31.718,126.265C32.022,126.302 32.337,126.32 32.661,126.32L33.433,126.32C36.635,126.32 39.045,125.697 40.665,124.45C42.285,123.203 43.096,121.15 43.096,118.289C43.096,115.613 42.4,113.633 41.008,112.349C39.617,111.066 37.607,110.424 34.977,110.424C34.443,110.424 33.919,110.443 33.404,110.479C32.89,110.516 32.328,110.571 31.718,110.645L31.718,126.265ZM91.349,108.774C91.387,109.141 91.387,109.508 91.349,109.874C89.977,109.947 88.957,110.076 88.29,110.259C87.623,110.442 87.099,110.837 86.719,111.442C86.337,112.047 85.88,113.028 85.346,114.384L72.482,147.276C72.215,147.386 71.863,147.468 71.424,147.524C70.986,147.579 70.614,147.606 70.309,147.606L57.331,114.054C56.835,112.771 56.416,111.854 56.073,111.304C55.731,110.754 55.244,110.397 54.615,110.232C53.986,110.067 52.967,109.947 51.557,109.874C51.519,109.508 51.519,109.141 51.557,108.774C52.548,108.774 53.71,108.793 55.044,108.829C56.378,108.866 57.559,108.884 58.588,108.884C59.656,108.884 60.713,108.866 61.761,108.829C62.81,108.793 63.868,108.774 64.935,108.774C64.974,109.141 64.974,109.508 64.935,109.874C63.411,109.984 62.42,110.103 61.962,110.232C61.505,110.36 61.276,110.681 61.276,111.195C61.276,111.378 61.314,111.607 61.39,111.882C61.467,112.157 61.581,112.496 61.733,112.9L72.711,141.776L83.345,113.504C83.726,112.515 83.916,111.799 83.916,111.359C83.916,110.773 83.621,110.406 83.031,110.259C82.44,110.112 81.401,109.984 79.915,109.874C79.876,109.508 79.876,109.141 79.915,108.774C80.867,108.774 81.849,108.793 82.858,108.829C83.869,108.866 84.85,108.884 85.804,108.884C86.566,108.884 87.471,108.866 88.519,108.829C89.568,108.793 90.511,108.774 91.349,108.774ZM95.579,147.386C95.54,147.019 95.54,146.653 95.579,146.286C96.874,146.176 97.808,146.066 98.38,145.956C98.952,145.846 99.314,145.58 99.466,145.158C99.619,144.737 99.696,144.049 99.696,143.096L99.696,113.559C99.696,112.423 99.619,111.616 99.466,111.139C99.314,110.663 98.952,110.351 98.38,110.204C97.808,110.057 96.874,109.947 95.579,109.874C95.54,109.508 95.54,109.141 95.579,108.774C96.15,108.774 96.837,108.783 97.637,108.802C98.438,108.82 99.238,108.838 100.038,108.857C100.838,108.875 101.487,108.884 101.982,108.884C102.478,108.884 103.126,108.875 103.926,108.857C104.726,108.838 105.536,108.82 106.356,108.802C107.175,108.783 107.833,108.774 108.328,108.774C108.366,109.141 108.366,109.508 108.328,109.874C107.032,109.947 106.099,110.057 105.527,110.204C104.955,110.351 104.602,110.626 104.469,111.029C104.336,111.433 104.269,112.111 104.269,113.064L104.269,126.43L127.081,126.43L127.081,113.559C127.081,112.423 127.014,111.616 126.881,111.139C126.747,110.663 126.405,110.351 125.852,110.204C125.299,110.057 124.374,109.947 123.079,109.874C123.041,109.508 123.041,109.141 123.079,108.774C123.613,108.774 124.27,108.783 125.051,108.802C125.832,108.82 126.633,108.838 127.453,108.857C128.272,108.875 128.93,108.884 129.426,108.884C130.226,108.884 131.274,108.866 132.57,108.829C133.866,108.793 134.933,108.774 135.772,108.774C135.809,109.141 135.809,109.508 135.772,109.874C134.475,109.947 133.542,110.057 132.97,110.204C132.399,110.351 132.036,110.626 131.884,111.029C131.73,111.433 131.654,112.111 131.654,113.064L131.654,142.601C131.654,143.701 131.721,144.489 131.855,144.966C131.988,145.443 132.341,145.754 132.912,145.901C133.485,146.048 134.437,146.176 135.772,146.286C135.809,146.653 135.809,147.019 135.772,147.386C134.933,147.386 133.846,147.368 132.512,147.331C131.178,147.294 130.13,147.276 129.368,147.276C128.605,147.276 127.586,147.294 126.309,147.331C125.032,147.368 123.975,147.386 123.136,147.386C123.098,147.019 123.098,146.653 123.136,146.286C124.393,146.176 125.299,146.066 125.852,145.956C126.405,145.846 126.747,145.58 126.881,145.158C127.014,144.737 127.081,144.049 127.081,143.096L127.081,128.19L104.269,128.19L104.269,142.601C104.269,143.701 104.336,144.499 104.469,144.994C104.602,145.488 104.955,145.8 105.527,145.929C106.099,146.057 107.032,146.176 108.328,146.286C108.366,146.653 108.366,147.019 108.328,147.386C107.794,147.386 107.118,147.377 106.299,147.358C105.479,147.34 104.678,147.322 103.897,147.304C103.116,147.285 102.459,147.276 101.925,147.276C101.429,147.276 100.781,147.285 99.981,147.304C99.18,147.322 98.389,147.34 97.608,147.358C96.826,147.377 96.15,147.386 95.579,147.386Z" style="fill:rgb(229,178,77);fill-rule:nonzero;"/>
    </g>
</svg>
