<?xml version="1.0" encoding="utf-8"?>
<svg xmlns="http://www.w3.org/2000/svg" viewBox="8.074 1.751 145.166 162.704">
  <g transform="matrix(-0.675414, 0, 0, 0.675414, 180.246033, -24.299572)" style="">
    <g transform="matrix(-1, 0, 0, 1, 376.003326, 43.368298)" style="">
      <path d="M 184.232 7.381 C 179.792 8.235 176.242 10.008 173.626 12.687 C 171.803 14.541 171.106 14.84 167.824 15.045 C 166.538 15.139 165.283 15.322 165.015 15.46 C 164.736 15.606 164.082 16.154 163.514 16.686 C 162.538 17.628 162.473 17.664 160.812 17.868 C 157.23 18.307 154.964 18.861 150.505 20.409 C 146.82 21.693 144.338 22.919 143.761 23.707 C 143.12 24.634 143.12 26.108 143.784 27.035 C 144.221 27.677 144.244 27.772 143.995 28.757 C 143.805 29.641 143.805 29.99 144.083 31.078 C 144.258 31.794 144.623 32.735 144.9 33.18 C 145.309 33.888 145.36 34.187 145.265 35.202 C 145.149 36.64 145.426 37.311 146.659 38.508 C 147.987 39.808 149.425 40.384 150.162 39.924 C 150.301 39.829 150.411 39.414 150.388 38.829 C 150.345 37.771 150.761 36.939 151.483 36.757 C 152.008 36.64 156.146 37.844 157.455 38.508 C 158.034 38.807 158.248 39.063 158.409 39.705 C 158.527 40.15 158.817 40.683 159.031 40.909 C 159.471 41.347 159.514 41.749 159.17 42.047 C 158.634 42.485 156.394 43.062 154.154 43.369 C 151.709 43.69 151.228 43.85 150.439 44.566 C 149.425 45.492 149.184 46.638 149.651 48.375 C 149.863 49.207 149.841 49.339 149.323 50.273 C 149.024 50.842 148.725 51.74 148.659 52.302 C 148.382 54.761 151.228 57.907 153.767 57.907 C 154.614 57.907 155.549 57.381 157.67 55.739 C 159.953 53.98 161.015 53.294 163.257 52.177 C 164.501 51.58 165.594 51.003 165.755 50.871 C 165.894 50.754 166.141 50.703 166.323 50.754 C 166.741 50.936 166.002 52.659 164.833 54.199 C 159.59 61.125 159.729 60.914 158.27 64.49 C 155.986 70.058 155.512 76.138 156.972 80.75 C 157.648 82.859 158.935 85.603 159.192 85.442 C 159.278 85.391 159.417 84.29 159.471 82.99 C 159.632 80.086 160.694 75.517 161.23 75.517 C 161.315 75.517 161.434 77.262 161.477 79.363 C 161.519 81.487 161.659 83.648 161.777 84.173 C 162.098 85.552 163.76 89.624 164.479 90.814 C 165.433 92.413 167.739 95.303 169.358 96.96 L 170.859 98.5 L 170.527 99.667 C 169.637 102.827 166.655 110.41 164.415 115.256 C 163.921 116.336 163.139 118.175 162.731 119.256 C 161.477 122.518 159.428 125.721 157.927 126.707 C 156.586 127.59 155.41 127.801 153.468 127.546 C 149.928 127.086 150.228 127.065 148.82 127.911 C 147.104 128.926 145.149 131.065 144.601 132.509 C 143.878 134.472 143.878 134.472 146.959 134.523 C 148.564 134.545 149.768 134.494 150.002 134.377 C 150.228 134.246 150.579 133.779 150.826 133.312 C 151.323 132.305 151.964 131.568 152.352 131.568 C 152.68 131.568 152.673 131.75 152.308 132.626 C 151.804 133.83 151.913 134.333 152.673 134.472 C 153.009 134.523 155.971 134.567 159.214 134.523 C 164.983 134.472 165.133 134.45 166.099 133.99 C 167.182 133.472 167.9 132.59 173.187 125.539 C 177.529 119.715 179.052 117.818 181.851 114.658 C 186.259 109.716 186.355 109.534 185.155 107.688 C 184.179 106.14 182.698 104.703 179.374 102.068 C 175.503 98.981 174.592 97.799 173.562 94.639 C 173.187 93.478 172.629 90.895 172.629 90.289 C 172.629 89.668 173.144 90.194 173.444 91.098 C 173.562 91.493 174.249 92.997 174.924 94.434 C 176.811 98.303 178.527 100.156 182.377 102.506 C 184.039 103.506 187.739 105.382 188.479 105.629 C 188.982 105.79 189.519 106.74 190.258 108.834 C 191.707 112.928 193.722 117.73 195.18 120.576 C 196.446 123.088 196.746 123.824 196.811 124.758 C 196.885 125.984 196.564 126.787 195.802 127.182 C 195.589 127.313 194.44 127.568 193.218 127.757 C 190.344 128.261 188.918 128.926 187.577 130.363 C 186.494 131.517 185.111 134.012 185.337 134.377 C 185.412 134.494 186.419 134.567 187.718 134.567 C 190.302 134.567 190.28 134.567 191.342 132.59 C 191.867 131.634 192.017 131.473 192.607 131.408 C 193.379 131.334 193.465 131.706 192.821 132.59 C 192.607 132.91 192.404 133.414 192.382 133.713 C 192.339 134.173 192.446 134.267 193.143 134.407 C 193.583 134.516 196.21 134.545 198.944 134.516 C 204.628 134.428 205.518 134.246 206.88 133.027 C 207.738 132.254 208.714 130.509 209.175 128.962 C 209.518 127.823 209.862 121.445 209.862 115.854 C 209.862 113.526 209.958 109.716 210.054 107.33 C 210.194 103.783 210.183 102.761 209.958 101.769 C 209.593 100.244 208.092 97.12 206.773 95.171 C 205.829 93.755 205.797 93.638 205.819 92.369 C 205.819 91.42 205.979 90.632 206.376 89.624 C 207.76 86.027 207.899 85.26 207.781 82.166 C 207.695 79.926 207.717 79.319 207.92 79.319 C 208.618 79.319 209.583 83.063 209.401 85.005 C 209.282 86.151 208.478 88.727 207.738 90.311 C 207.276 91.266 207.459 93.135 208.135 94.675 C 208.532 95.536 209.122 96.295 210.194 97.361 C 212.403 99.528 212.66 100.134 212.66 103.579 L 212.66 106.345 L 213.625 106.345 C 214.58 106.345 217.464 105.812 219.47 105.265 C 222.344 104.499 224.606 103.425 227.759 101.404 C 228.854 100.682 230.536 99.674 231.48 99.185 C 232.413 98.682 234.075 97.682 235.18 96.945 C 238.943 94.456 241.507 93.573 245.593 93.391 C 247.855 93.295 248.413 93.339 249.85 93.711 C 250.772 93.96 252.112 94.478 252.841 94.872 C 254.9 95.996 255.158 96.113 255.319 96.04 C 255.383 95.974 255.093 95.054 254.675 93.989 C 254.256 92.916 253.722 91.449 253.474 90.734 C 253.121 89.69 252.755 89.165 251.759 88.15 C 251.051 87.45 250.557 86.786 250.632 86.713 C 250.955 86.392 252.337 86.946 253.195 87.749 C 254.343 88.793 255.48 90.574 257.603 94.537 C 259.619 98.339 259.983 98.923 261.389 100.842 C 263.523 103.783 268.295 108.009 271.49 109.79 C 273.077 110.644 277.624 112.417 279.361 112.811 C 279.598 112.877 280.466 113.11 281.227 113.352 C 281.999 113.592 283.522 114.037 284.627 114.358 C 291.189 116.176 292.016 116.716 294.911 121.146 C 296.198 123.088 297.656 125.882 297.839 126.766 C 298.042 127.729 297.817 127.801 294.611 127.823 C 291.651 127.867 291.629 127.867 290.268 128.546 C 287.726 129.83 286.149 131.75 286.064 133.647 L 286.031 134.472 L 288.134 134.523 C 289.292 134.567 290.611 134.523 291.093 134.472 C 292.037 134.333 291.972 134.407 292.809 132.114 C 293.013 131.59 293.431 130.889 293.774 130.568 C 294.375 129.947 295.34 129.743 295.34 130.225 C 295.34 130.363 294.975 131.225 294.514 132.144 C 294.075 133.05 293.731 133.947 293.774 134.129 C 293.838 134.428 294.353 134.472 299.243 134.472 C 303.339 134.472 304.841 134.384 305.441 134.195 C 307.629 133.436 308.744 131.911 308.744 129.721 C 308.744 128.466 308.605 127.685 307.382 122.16 C 306.803 119.554 306.685 118.723 306.063 112.767 C 305.742 109.673 305.763 109.695 303.543 108.841 C 299.575 107.344 295.651 105.126 293.41 103.083 C 290.793 100.704 288.552 96.996 286.428 91.537 C 285.345 88.749 284.284 86.487 283.168 84.523 C 282.365 83.129 279.082 77.882 278.675 77.334 C 278.225 76.736 278.225 76.525 278.718 76.525 C 279.136 76.525 281.603 79.203 282.943 81.122 C 284.166 82.881 284.723 83.429 286.31 84.428 C 288.53 85.83 290.814 86.756 293.978 87.515 C 296.015 88.005 296.958 88.027 298.793 87.632 C 302.556 86.83 305.742 84.188 307.007 80.779 C 308.969 75.576 307.468 70.058 303.081 66.227 C 299.918 63.482 295.79 61.264 288.927 58.585 C 286.471 57.615 282.879 55.812 280.927 54.564 C 279.082 53.36 276.702 51.163 275.597 49.674 C 273.377 46.638 273.42 43.106 275.715 40.61 C 277.238 38.968 278.825 38.282 281.227 38.282 C 284.069 38.282 286.149 39.18 288.691 41.508 C 291.511 44.076 293.474 45.047 297.335 45.814 C 300.916 46.528 305.827 45.573 308.047 43.734 C 308.884 43.033 310.149 41.325 310.149 40.865 C 310.149 40.405 310.17 40.405 309.291 40.792 C 308.422 41.142 306.664 41.187 305.72 40.843 C 305.345 40.727 303.822 39.705 302.343 38.581 C 297.602 35.041 293.677 32.823 290.236 31.742 C 288.552 31.217 288.187 31.173 285.023 31.173 C 281.881 31.173 281.485 31.217 279.802 31.721 C 274.815 33.224 270.954 36.041 269.41 39.325 C 267.029 44.405 268.166 49.813 272.552 54.257 C 274.836 56.564 280.145 59.76 286.172 62.482 C 292.476 65.351 296.359 67.533 298.9 69.671 C 299.704 70.358 300.155 70.978 300.799 72.277 C 301.624 73.941 301.645 74.058 301.645 75.905 C 301.645 77.641 301.581 77.897 301.077 78.765 C 299.78 80.983 297.602 81.626 294.632 80.619 C 291.886 79.699 287.651 77.239 283.929 74.422 C 279.683 71.197 278.975 70.752 274.633 68.627 C 269.356 66.044 267.533 65.373 263.609 64.49 C 259.361 63.548 256.381 63.293 248.788 63.205 C 241.711 63.132 236.638 62.687 232.982 61.862 C 230 61.213 223.727 58.046 221.625 56.14 C 219.985 54.659 219.427 52.805 219.963 50.71 C 220.371 49.134 220.391 45.609 219.963 43.69 C 219.33 40.566 218.344 38.391 215.62 33.939 C 213.861 31.078 213.464 30.217 213.818 29.99 C 214.204 29.757 215.202 30.859 216.79 33.268 C 217.647 34.581 218.43 35.603 218.526 35.509 C 218.601 35.421 218.483 34.501 218.268 33.458 C 218.022 32.414 217.7 30.94 217.528 30.173 C 216.767 26.802 215.105 24.568 211.577 22.211 C 209.336 20.686 208.092 19.547 206.73 17.708 C 203.149 12.92 198.247 9.497 193.046 8.162 C 192.317 7.979 191.417 7.753 190.998 7.636 C 190.205 7.447 185.015 7.235 184.232 7.381 Z M 195.106 13.759 C 199.03 14.789 201.936 17.81 202.655 21.627 C 202.816 22.51 202.387 28.094 202.13 28.517 C 201.808 29.035 201.454 27.335 201.454 25.254 C 201.454 21.372 200.81 19.591 198.687 17.664 C 196.843 15.986 195.889 15.438 194.484 15.322 C 192.017 15.11 189.743 16.007 187.76 18.007 C 185.862 19.926 185.98 20.335 188.436 20.569 C 189.723 20.686 190.977 20.985 193.883 21.868 C 194.945 22.189 196.95 23.386 197.669 24.115 C 198.613 25.072 200.274 27.517 200.853 28.736 C 201.111 29.276 201.507 29.83 201.776 30.013 C 202.312 30.356 202.387 30.918 201.969 31.261 C 201.55 31.626 201.132 31.334 200.725 30.422 C 200.028 28.86 198.526 26.779 197.186 25.532 C 194.741 23.269 190.967 21.868 187.234 21.868 C 185.379 21.868 183.975 21.489 183.76 20.956 C 183.696 20.795 183.739 20.409 183.856 20.109 C 184.114 19.43 188.242 15.322 189.444 14.562 C 191.116 13.475 193.026 13.22 195.106 13.759 Z M 177.787 14.585 C 178.57 14.767 179.353 15.001 179.546 15.139 C 179.868 15.387 180.49 16.869 180.329 17.03 C 180.296 17.081 179.772 16.891 179.191 16.621 C 177.434 15.803 175.406 15.409 173.765 15.548 C 172.961 15.606 172.06 15.686 171.739 15.723 C 170.838 15.788 170.902 15.343 171.868 14.979 C 173.83 14.242 175.707 14.102 177.787 14.585 Z M 169.519 15.847 C 169.701 16.154 169.058 16.409 167.16 16.752 C 166.195 16.92 165.155 17.168 164.876 17.285 C 164.523 17.423 164.275 17.402 164.136 17.263 C 163.835 16.964 164.64 16.343 165.82 15.986 C 166.837 15.65 169.337 15.562 169.519 15.847 Z M 170.119 18.467 C 170.324 18.788 171.599 19.387 173.09 19.868 C 174.366 20.292 174.827 20.664 174.087 20.664 C 173.584 20.686 172.125 21.372 170.925 22.153 C 170.388 22.51 169.305 23.065 168.522 23.364 C 167.76 23.663 167.085 23.955 167.042 23.991 C 166.978 24.028 167.138 24.269 167.385 24.532 C 167.965 25.16 168.222 25.933 168.222 27.101 C 168.222 28.495 167.76 28.414 166.237 26.736 C 165.122 25.488 165.015 25.298 165.015 24.474 C 165.015 23.153 164.618 22.671 163.493 22.671 C 163.021 22.671 162.613 22.598 162.613 22.51 C 162.613 22.415 162.999 22.153 163.46 21.955 C 163.921 21.743 164.854 21.168 165.519 20.686 C 168.179 18.715 168.897 18.263 169.444 18.263 C 169.744 18.263 170.066 18.372 170.119 18.467 Z M 159.514 22.488 C 159.61 22.62 159.578 22.671 159.417 22.671 C 158.313 22.693 153.184 23.313 152.125 23.569 C 151.388 23.729 150.119 24.232 149.287 24.678 C 148.447 25.116 147.644 25.466 147.505 25.466 C 147.024 25.466 146.959 25.094 147.345 24.591 C 148.148 23.495 150.666 22.627 154.066 22.291 C 155.775 22.109 159.235 22.247 159.514 22.488 Z M 184.714 29.415 C 185.24 30.45 185.476 32.699 185.262 34.304 C 184.993 36.106 184.211 38.763 183.535 40.194 C 182.859 41.567 181.358 43.391 180.135 44.354 C 178.473 45.653 173.83 47.734 173.83 47.193 C 173.83 47.106 174.441 46.368 175.192 45.529 C 175.932 44.675 176.886 43.529 177.326 42.989 C 177.766 42.434 178.451 41.632 178.849 41.187 C 183.278 36.362 183.834 35.239 183.834 31.078 C 183.834 29.276 183.9 28.874 184.135 28.874 C 184.296 28.874 184.554 29.116 184.714 29.415 Z M 146.214 31.378 C 147.849 32.823 148.338 32.983 151.913 32.983 C 155.053 32.983 155.125 32.998 156.211 33.567 C 159.278 35.166 161.551 37.362 162.796 39.902 C 163.482 41.325 163.621 41.828 163.621 42.807 C 163.621 43.449 163.514 44.332 163.396 44.748 C 163.054 46.017 161.691 47.47 160.018 48.375 L 158.517 49.2 L 156.211 49.2 C 154.322 49.178 153.767 49.112 153.111 48.791 C 152.424 48.448 152.286 48.28 152.242 47.711 C 152.213 47.332 152.008 46.798 151.782 46.506 C 151.447 46.091 151.432 45.974 151.665 45.733 C 151.921 45.492 152.03 45.492 152.512 45.814 C 153.672 46.572 157.315 46.499 158.871 45.675 C 159.953 45.091 160.897 43.427 161.315 41.347 C 161.755 39.18 157.788 36.64 151.549 35.064 C 149.359 34.516 148.944 34.333 147.549 33.363 C 146.681 32.735 145.797 31.954 145.586 31.626 C 144.879 30.45 145.126 30.378 146.214 31.378 Z M 194.022 34.027 C 194.162 34.333 194.57 35.304 194.902 36.18 C 195.664 38.231 195.749 40.566 195.084 42.252 C 194.388 44.032 192.446 47.054 190.967 48.631 C 189.582 50.112 188.779 50.754 184.5 53.864 C 183.256 54.747 181.455 56.14 180.49 56.965 C 178.591 58.585 174.484 62.709 173.487 64.008 C 172.146 65.767 170.828 69.153 170.828 70.853 C 170.828 72.094 170.442 72.481 170.066 71.613 C 169.283 69.898 170.506 65.271 172.661 61.811 C 173.444 60.585 175.192 58.344 176.425 57.016 C 177.905 55.418 182.538 51.536 185.936 48.995 C 191.385 44.953 193.026 42.894 193.54 39.325 C 193.7 38.347 193.787 37.362 193.744 37.165 C 193.561 36.267 193.465 33.48 193.626 33.48 C 193.7 33.48 193.883 33.727 194.022 34.027 Z M 149.608 36.866 C 149.608 37.45 148.921 38.165 148.542 38.026 C 148.104 37.865 148.104 37.326 148.542 36.844 C 148.958 36.362 149.608 36.362 149.608 36.866 Z M 205.057 41.165 C 205.057 43.084 204.95 43.755 204.456 45.551 C 204.113 46.711 203.577 48.309 203.255 49.112 C 202.591 50.681 200.789 53.521 199.91 54.338 C 199.588 54.615 197.723 55.944 195.749 57.264 C 188.404 62.205 183.717 66.949 181.23 72.022 C 179.567 75.378 179.009 78.86 179.492 82.786 C 179.653 84.049 179.632 84.151 179.31 84.085 C 179.074 84.049 178.849 83.589 178.57 82.626 C 178.248 81.509 178.152 80.597 178.152 78.123 C 178.13 76.204 178.227 74.722 178.366 74.219 C 178.506 73.78 178.849 72.693 179.106 71.795 C 179.749 69.693 180.468 68.146 181.711 66.314 C 184.179 62.584 187.535 59.206 192.039 55.9 C 198.247 51.331 199.814 49.719 201.615 46.047 C 202.268 44.697 203.255 42.529 203.77 41.231 C 204.296 39.946 204.789 38.88 204.875 38.88 C 204.971 38.88 205.057 39.902 205.057 41.165 Z M 209.261 54.221 C 209.433 54.564 209.562 55.345 209.562 56.104 C 209.562 57.199 209.454 57.586 208.896 58.563 C 207.556 60.87 204.488 63.914 200.65 66.73 C 197.948 68.693 196.51 70.058 195.909 71.153 C 195.128 72.576 194.741 72.671 194.902 71.415 C 195.17 69.533 196.542 67.774 199.61 65.467 C 202.076 63.614 205.035 60.767 205.915 59.44 C 207.159 57.586 208.252 55.235 208.252 54.476 C 208.252 53.316 208.735 53.177 209.261 54.221 Z M 218.762 61.95 C 219.888 63.205 221.186 65.767 221.464 67.292 C 221.893 69.511 221.603 70.853 220.745 70.678 C 220.231 70.569 219.844 69.715 219.641 68.139 C 219.427 66.314 218.966 64.891 218.043 63.044 C 217.625 62.183 217.261 61.373 217.261 61.213 C 217.261 60.629 217.839 60.928 218.762 61.95 Z" style="stroke-width: 0.696; fill: rgb(65, 69, 70);"/>
      <path d="M 245.375 97.062 C 241.633 97.426 233.151 99.945 233.311 100.66 C 233.504 101.477 236.013 107.644 236.453 108.403 C 237.193 109.651 238.952 111.453 241.772 113.774 C 246.062 117.336 246.661 118.197 246.2 120.102 C 245.857 121.445 244.818 122.927 242.62 125.211 C 239.51 128.385 237.837 129.006 234.265 128.261 C 232.431 127.867 232.249 127.889 231.006 128.466 C 229.065 129.371 226.502 132.254 226.062 134.012 L 225.922 134.567 L 228.7 134.567 C 230.63 134.567 231.585 134.494 231.81 134.311 C 231.992 134.195 232.571 133.509 233.064 132.808 C 233.665 131.976 234.104 131.568 234.33 131.611 C 234.867 131.706 234.834 132.275 234.19 133.29 C 233.869 133.83 233.655 134.333 233.686 134.407 C 233.75 134.494 236.25 134.567 239.23 134.567 C 246.222 134.567 246.501 134.516 248.882 132.254 C 249.321 131.823 251.166 130.108 252.989 128.4 C 258.533 123.204 259.038 122.701 259.81 121.496 C 261.097 119.533 261.053 119.212 259.349 116.694 C 258.137 114.892 257.793 114.015 257.793 112.534 C 257.793 111.053 258.137 110.045 259.637 107.344 C 260.153 106.411 260.635 105.403 260.689 105.082 C 261.074 103.549 257.911 99.74 255.165 98.441 C 254.351 98.054 253.182 97.594 252.582 97.433 C 251.487 97.134 247.059 96.901 245.375 97.062 Z" style="stroke-width: 0.696; fill: rgb(65, 69, 70);"/>
    </g>
    <rect x="67.32" y="180.989" width="165.043" height="7.593" style="stroke: rgb(0, 0, 0); fill: rgb(65, 69, 70); stroke-width: 0px;"/>
  </g>
  <path d="M 36.12 147.496 C 34.938 147.496 33.795 147.46 32.689 147.386 C 31.585 147.313 30.555 147.276 29.602 147.276 C 29.183 147.276 28.554 147.285 27.716 147.304 C 26.877 147.322 26.039 147.34 25.2 147.358 C 24.361 147.377 23.676 147.386 23.142 147.386 C 23.104 147.019 23.104 146.653 23.142 146.286 C 24.437 146.176 25.372 146.057 25.943 145.929 C 26.515 145.8 26.867 145.534 27 145.131 C 27.134 144.728 27.201 144.049 27.201 143.096 L 27.201 113.559 C 27.201 112.459 27.125 111.671 26.972 111.195 C 26.819 110.718 26.467 110.397 25.914 110.232 C 25.362 110.067 24.437 109.947 23.142 109.874 C 23.104 109.508 23.104 109.141 23.142 108.774 C 24.057 108.774 25.152 108.793 26.429 108.829 C 27.706 108.866 28.801 108.884 29.717 108.884 C 30.326 108.884 31.041 108.875 31.861 108.857 C 32.68 108.838 33.481 108.82 34.262 108.802 C 35.044 108.783 35.681 108.774 36.177 108.774 C 40.103 108.774 43.048 109.499 45.011 110.947 C 46.973 112.395 47.955 114.513 47.955 117.3 C 47.955 119.756 47.26 121.7 45.868 123.13 C 44.477 124.56 42.752 125.697 40.693 126.54 L 40.693 126.65 C 42.295 126.87 43.82 127.42 45.268 128.3 C 46.716 129.18 47.898 130.335 48.813 131.765 C 49.727 133.195 50.184 134.9 50.184 136.881 C 50.184 139.337 49.46 141.427 48.012 143.151 C 46.563 144.874 44.772 146.066 42.638 146.726 C 41.799 146.983 40.799 147.175 39.635 147.304 C 38.474 147.432 37.301 147.496 36.12 147.496 Z M 34.747 127.915 C 34.367 127.915 33.91 127.924 33.376 127.943 C 32.843 127.961 32.289 127.989 31.718 128.025 L 31.718 145.516 C 32.519 145.626 33.337 145.708 34.176 145.763 C 35.014 145.819 35.72 145.846 36.292 145.846 C 42.238 145.846 45.211 142.986 45.211 137.265 C 45.211 131.032 41.723 127.915 34.747 127.915 Z M 31.718 126.265 C 32.022 126.302 32.337 126.32 32.661 126.32 C 32.985 126.32 33.243 126.32 33.433 126.32 C 36.635 126.32 39.045 125.697 40.665 124.45 C 42.285 123.203 43.096 121.15 43.096 118.289 C 43.096 115.613 42.4 113.633 41.008 112.349 C 39.617 111.066 37.607 110.424 34.977 110.424 C 34.443 110.424 33.919 110.443 33.404 110.479 C 32.89 110.516 32.328 110.571 31.718 110.645 L 31.718 126.265 Z M 91.349 108.774 C 91.387 109.141 91.387 109.508 91.349 109.874 C 89.977 109.947 88.957 110.076 88.29 110.259 C 87.623 110.442 87.099 110.837 86.719 111.442 C 86.337 112.047 85.88 113.028 85.346 114.384 L 72.482 147.276 C 72.215 147.386 71.863 147.468 71.424 147.524 C 70.986 147.579 70.614 147.606 70.309 147.606 L 57.331 114.054 C 56.835 112.771 56.416 111.854 56.073 111.304 C 55.731 110.754 55.244 110.397 54.615 110.232 C 53.986 110.067 52.967 109.947 51.557 109.874 C 51.519 109.508 51.519 109.141 51.557 108.774 C 52.548 108.774 53.71 108.793 55.044 108.829 C 56.378 108.866 57.559 108.884 58.588 108.884 C 59.656 108.884 60.713 108.866 61.761 108.829 C 62.81 108.793 63.868 108.774 64.935 108.774 C 64.974 109.141 64.974 109.508 64.935 109.874 C 63.411 109.984 62.42 110.103 61.962 110.232 C 61.505 110.36 61.276 110.681 61.276 111.195 C 61.276 111.378 61.314 111.607 61.39 111.882 C 61.467 112.157 61.581 112.496 61.733 112.9 L 72.711 141.776 L 83.345 113.504 C 83.726 112.515 83.916 111.799 83.916 111.359 C 83.916 110.773 83.621 110.406 83.031 110.259 C 82.44 110.112 81.401 109.984 79.915 109.874 C 79.876 109.508 79.876 109.141 79.915 108.774 C 80.867 108.774 81.849 108.793 82.858 108.829 C 83.869 108.866 84.85 108.884 85.804 108.884 C 86.566 108.884 87.471 108.866 88.519 108.829 C 89.568 108.793 90.511 108.774 91.349 108.774 Z M 95.579 147.386 C 95.54 147.019 95.54 146.653 95.579 146.286 C 96.874 146.176 97.808 146.066 98.38 145.956 C 98.952 145.846 99.314 145.58 99.466 145.158 C 99.619 144.737 99.696 144.049 99.696 143.096 L 99.696 113.559 C 99.696 112.423 99.619 111.616 99.466 111.139 C 99.314 110.663 98.952 110.351 98.38 110.204 C 97.808 110.057 96.874 109.947 95.579 109.874 C 95.54 109.508 95.54 109.141 95.579 108.774 C 96.15 108.774 96.837 108.783 97.637 108.802 C 98.438 108.82 99.238 108.838 100.038 108.857 C 100.838 108.875 101.487 108.884 101.982 108.884 C 102.478 108.884 103.126 108.875 103.926 108.857 C 104.726 108.838 105.536 108.82 106.356 108.802 C 107.175 108.783 107.833 108.774 108.328 108.774 C 108.366 109.141 108.366 109.508 108.328 109.874 C 107.032 109.947 106.099 110.057 105.527 110.204 C 104.955 110.351 104.602 110.626 104.469 111.029 C 104.336 111.433 104.269 112.111 104.269 113.064 L 104.269 126.43 L 127.081 126.43 L 127.081 113.559 C 127.081 112.423 127.014 111.616 126.881 111.139 C 126.747 110.663 126.405 110.351 125.852 110.204 C 125.299 110.057 124.374 109.947 123.079 109.874 C 123.041 109.508 123.041 109.141 123.079 108.774 C 123.613 108.774 124.27 108.783 125.051 108.802 C 125.832 108.82 126.633 108.838 127.453 108.857 C 128.272 108.875 128.93 108.884 129.426 108.884 C 130.226 108.884 131.274 108.866 132.57 108.829 C 133.866 108.793 134.933 108.774 135.772 108.774 C 135.809 109.141 135.809 109.508 135.772 109.874 C 134.475 109.947 133.542 110.057 132.97 110.204 C 132.399 110.351 132.036 110.626 131.884 111.029 C 131.73 111.433 131.654 112.111 131.654 113.064 L 131.654 142.601 C 131.654 143.701 131.721 144.489 131.855 144.966 C 131.988 145.443 132.341 145.754 132.912 145.901 C 133.485 146.048 134.437 146.176 135.772 146.286 C 135.809 146.653 135.809 147.019 135.772 147.386 C 134.933 147.386 133.846 147.368 132.512 147.331 C 131.178 147.294 130.13 147.276 129.368 147.276 C 128.605 147.276 127.586 147.294 126.309 147.331 C 125.032 147.368 123.975 147.386 123.136 147.386 C 123.098 147.019 123.098 146.653 123.136 146.286 C 124.393 146.176 125.299 146.066 125.852 145.956 C 126.405 145.846 126.747 145.58 126.881 145.158 C 127.014 144.737 127.081 144.049 127.081 143.096 L 127.081 128.19 L 104.269 128.19 L 104.269 142.601 C 104.269 143.701 104.336 144.499 104.469 144.994 C 104.602 145.488 104.955 145.8 105.527 145.929 C 106.099 146.057 107.032 146.176 108.328 146.286 C 108.366 146.653 108.366 147.019 108.328 147.386 C 107.794 147.386 107.118 147.377 106.299 147.358 C 105.479 147.34 104.678 147.322 103.897 147.304 C 103.116 147.285 102.459 147.276 101.925 147.276 C 101.429 147.276 100.781 147.285 99.981 147.304 C 99.18 147.322 98.389 147.34 97.608 147.358 C 96.826 147.377 96.15 147.386 95.579 147.386 Z" style="fill: rgb(107, 36, 34); stroke-width: 0.696px; text-wrap-mode: nowrap;"/>
</svg>